<svg width="1366" height="795" viewBox="0 0 1366 795" fill="none" xmlns="http://www.w3.org/2000/svg">
<path d="M2100.33 497.545L2056.74 660.218C2040.27 721.68 1992.16 769.419 1930.88 785.772L1202.76 978.051C1173.2 985.861 1141.78 985.963 1111.88 977.951C1064.89 965.361 1027.34 934.652 1004.49 895.429C981.949 856.289 974.197 808.329 986.897 760.934L1023.93 622.722L446.087 775.301C416.219 783.03 385.104 783.213 355.203 775.201C307.911 762.529 270.357 731.82 247.816 692.679C225.275 653.538 217.524 605.579 230.223 558.184L271.436 404.377L67.2503 446.347C40.2563 451.895 12.6833 451.062 -13.8613 443.949L-19.0482 442.559C-113.327 417.297 -169.427 320.333 -144.028 225.542L-102.16 69.2895C-84.7902 4.46465 -32.282 -45.0457 33.4726 -58.5613L375.396 -128.842C402.39 -134.391 429.964 -133.557 456.508 -126.445L461.695 -125.055C555.974 -99.7929 611.992 -2.52244 586.674 91.9628L549.641 230.174L1127.79 77.6769C1157.66 69.9487 1188.77 69.7651 1218.67 77.777C1265.97 90.4489 1303.52 121.158 1326.06 160.299C1348.6 199.44 1356.35 247.399 1343.65 294.795L1306.62 433.006L1884.46 280.427C1914.33 272.699 1945.45 272.515 1975.35 280.527C2022.33 293.117 2059.89 323.827 2082.73 363.049C2105.28 402.19 2113.03 450.149 2100.33 497.545Z" fill="#671E75" fill-opacity="0.04"/>
</svg>
