<svg width="219" height="28" viewBox="0 0 219 28" fill="none" xmlns="http://www.w3.org/2000/svg">
<g clip-path="url(#clip0_302_483)">
<path d="M91.752 21.0617C90.5773 25.2922 86.9463 27.9918 81.8613 27.9918C75.5687 27.9918 71.5435 23.8436 71.5435 17.6132C71.5435 11.3827 75.6427 7.23457 81.8613 7.23457C88.9754 7.23457 92.9185 12.5597 90.8484 18.9054H77.1296C77.5239 21.7202 79.1176 23.4074 81.9353 23.4074C83.8904 23.4074 85.3362 22.5844 85.9605 21.0617H91.7438H91.752ZM77.2117 15.5885H85.7305C85.9605 13.2428 84.5969 11.6708 81.8203 11.6708C79.3229 11.6708 77.7128 13.0453 77.2035 15.5885H77.2117Z" fill="#00001F"/>
<path d="M112.905 0V27.4074H107.59V24.7819C106.144 26.823 103.918 27.9918 101.142 27.9918C95.9416 27.9918 92.2285 23.8436 92.2285 17.6132C92.2285 11.3827 95.9006 7.23457 101.101 7.23457C103.877 7.23457 106.103 8.41152 107.59 10.4856V0H112.905ZM107.87 17.6214C107.87 14.1399 105.832 11.8272 102.826 11.8272C99.819 11.8272 97.7489 14.1317 97.7489 17.6214C97.7489 21.1111 99.778 23.4156 102.826 23.4156C105.873 23.4156 107.87 21.1029 107.87 17.6214Z" fill="#00001F"/>
<path d="M132.457 7.82716V27.4074H127.142V24.1975C125.811 26.5432 123.585 27.8765 120.89 27.8765C115.419 27.8765 114.598 22.2798 114.598 18.8313V7.82716H119.913V18.8313C119.913 21.2593 120.496 23.4486 122.919 23.4486C125.499 23.4486 127.142 21.1029 127.142 17.6955V7.82716H132.457Z" fill="#00001F"/>
<path d="M163.854 7.82716L158.071 27.4074H151.581L148.262 14.4033L144.943 27.4074H138.454L132.629 7.82716H138.257L141.888 22.3951L145.486 7.82716H151.113L154.555 22.1235L158.309 7.82716H163.862H163.854Z" fill="#00001F"/>
<path d="M181.121 16.3292V27.4156H176.357V24.0494C174.911 26.5926 172.529 28 169.325 28C165.061 28 162.564 25.4979 162.564 22.1235C162.564 18.1646 166.039 15.7778 171.551 15.7778C173.038 15.7778 174.517 15.9342 175.815 16.2058C175.773 13.6214 174.837 11.7449 172.06 11.7449C170.064 11.7449 168.898 12.7243 169.243 14.4856H163.928C162.909 9.98354 166.934 7.2428 172.093 7.2428C178.074 7.2428 181.121 10.8066 181.121 16.3292ZM175.962 20.0082C174.714 19.6132 173.227 19.4156 172.052 19.4156C169.119 19.4156 167.871 20.3951 167.871 21.8848C167.871 23.2593 168.889 23.9588 170.524 23.9588C173.021 23.9588 175.059 22.3951 175.954 20.0082H175.962Z" fill="#00001F"/>
<path d="M200.369 7.82716L193.534 27.4074H187.045L180.243 7.82716H185.87L190.281 22.5514L194.775 7.82716H200.361H200.369Z" fill="#00001F"/>
<path d="M219 21.0617C217.825 25.2922 214.194 27.9918 209.109 27.9918C202.817 27.9918 198.792 23.8436 198.792 17.6132C198.792 11.3827 202.891 7.23457 209.109 7.23457C216.223 7.23457 220.167 12.5597 218.096 18.9054H204.378C204.772 21.7202 206.366 23.4074 209.183 23.4074C211.138 23.4074 212.584 22.5844 213.209 21.0617H218.992H219ZM204.46 15.5885H212.979C213.209 13.2428 211.845 11.6708 209.068 11.6708C206.571 11.6708 204.961 13.0453 204.452 15.5885H204.46Z" fill="#00001F"/>
<path d="M58.2188 9.1111V13.4897C58.2188 15.144 57.3316 16.6667 55.9022 17.4897L38.9057 27.2181C38.2156 27.6132 37.427 27.8272 36.6219 27.8272C35.3569 27.8272 34.2068 27.3086 33.3689 26.4774C32.5392 25.6461 32.0216 24.4938 32.0216 23.2181V19.4979L18.5328 27.2181C17.8346 27.6132 17.0541 27.8272 16.2491 27.8272C14.9758 27.8272 13.8257 27.3086 12.996 26.4774C12.1663 25.6461 11.6488 24.4938 11.6488 23.2181V19.0782L6.80199 21.5062C6.16123 21.8272 5.46297 21.9918 4.74828 21.9918H4.60862C2.07023 21.9918 0.00830078 19.9341 0.00830078 17.3827V13.1769C0.00830078 11.4321 0.994084 9.83538 2.55491 9.05349L10.6794 4.97942C11.3202 4.65843 12.0184 4.49382 12.7331 4.49382H12.8728C15.4112 4.49382 17.4731 6.55966 17.4731 9.10287V12.823L30.9701 5.10287C31.6684 4.70781 32.4488 4.49382 33.2538 4.49382C34.5271 4.49382 35.6772 5.01234 36.5069 5.84361C37.3366 6.67489 37.8542 7.82715 37.8542 9.10287V12.823L51.343 5.10287C52.0412 4.70781 52.8216 4.49382 53.6267 4.49382C54.8918 4.49382 56.0419 5.01234 56.8798 5.84361C57.7095 6.67489 58.227 7.82715 58.227 9.10287L58.2188 9.1111Z" fill="#671E75"/>
</g>
<defs>
<clipPath id="clip0_302_483">
<rect width="219" height="28" fill="white"/>
</clipPath>
</defs>
</svg>
