<svg width="512" height="512" viewBox="0 0 512 512" fill="none" xmlns="http://www.w3.org/2000/svg">
<rect width="512" height="512" fill="#671E75"/>
<path d="M430.951 213.704V239.975C430.951 249.901 425.617 259.037 417.024 263.975L314.844 322.346C310.695 324.716 305.954 326 301.114 326C293.509 326 286.595 322.889 281.557 317.901C276.569 312.914 273.458 306 273.458 298.346V276.025L192.366 322.346C188.168 324.716 183.476 326 178.637 326C170.982 326 164.068 322.889 159.08 317.901C154.092 312.914 150.98 306 150.98 298.346V273.506L121.842 288.074C117.99 290 113.792 290.988 109.496 290.988H108.656C93.3959 290.988 81 278.642 81 263.333V238.099C81 227.63 86.9263 218.049 96.3097 213.358L145.153 188.914C149.005 186.988 153.203 186 157.499 186H158.339C173.599 186 185.995 198.395 185.995 213.654V235.975L267.137 189.654C271.334 187.284 276.026 186 280.866 186C288.521 186 295.435 189.111 300.423 194.099C305.411 199.086 308.522 206 308.522 213.654V235.975L389.614 189.654C393.812 187.284 398.504 186 403.344 186C410.949 186 417.863 189.111 422.901 194.099C427.889 199.086 431 206 431 213.654L430.951 213.704Z" fill="#FFFAFA"/>
</svg>
